# xmcd
#
# Track frame offsets: 
#        150
#        18651
#        39118
#        55176
#        72603
#        96451
#        115494
#        149718
#        167036
#        184554
#        200717
#
# Disc length: 3144 seconds
#
# Revision: 3
# Processed by: cddbd v1.5.2PL0 Copyright (c) Steve Scherf et al.
# Submitted via: ExactAudioCopy v1.0b3
#
DISCID=a80c460b
DTITLE=The Nick Gravenites-John Cippolina Band - Monkey Medecine
DYEAR=1982
DGENRE=Blues
TTITLE0=blues in the bottle
TTITLE1=six weeks in reno
TTITLE2=I'll pull the trigger
TTITLE3=trust me
TTITLE4=buried alive in the blues
TTITLE5=born in chicako
TTITLE6=bad luck baby
TTITLE7=signs of life
TTITLE8=pride of man
TTITLE9=hot rods and cool women
TTITLE10=small walk-in box
EXTD=
EXTT0=
EXTT1=
EXTT2=
EXTT3=
EXTT4=
EXTT5=
EXTT6=
EXTT7=
EXTT8=
EXTT9=
EXTT10=
PLAYORDER=
